<svg width="69" height="69" viewBox="0 0 69 69" fill="none" xmlns="http://www.w3.org/2000/svg">
<rect width="68.2099" height="68.2099" rx="22.7366" fill="#FFE8DB"/>
<path d="M27.5801 41.5558H30.4232V42.4569H28.4822V43.464H29.8971V44.3651L28.4841 44.3717V45.5864H30.4897V46.4875H27.5801V41.5558ZM32.5223 44.5489H31.8742V46.4814H30.9683V41.5558H32.5294C32.731 41.5539 32.9321 41.5806 33.1281 41.6353C33.3014 41.6826 33.4646 41.7705 33.6077 41.8937C33.7462 42.0162 33.8564 42.1767 33.9287 42.3608C34.011 42.5811 34.0507 42.8197 34.045 43.0598C34.0563 43.2689 34.0258 43.4783 33.9558 43.6714C33.8859 43.8645 33.7784 44.0362 33.6419 44.1729C33.318 44.4466 32.9218 44.5797 32.5223 44.5489ZM32.4525 42.4552H31.8742V43.6478H32.4525C32.5396 43.6481 32.6266 43.6405 32.7127 43.6252C32.789 43.6126 32.8627 43.584 32.9301 43.5407C32.9934 43.4995 33.0458 43.439 33.0816 43.3657C33.1231 43.2751 33.1429 43.1733 33.1391 43.0708C33.1421 42.9704 33.1284 42.8703 33.0987 42.776C33.0755 42.7055 33.0361 42.6438 32.9847 42.5976C32.8243 42.4872 32.6382 42.438 32.4525 42.4569V42.4552ZM36.1816 46.5515C35.9621 46.5676 35.7421 46.5328 35.5342 46.4492C35.3264 46.3656 35.1349 46.2348 34.9708 46.0645C34.8204 45.8777 34.7046 45.6569 34.6306 45.4158C34.5565 45.1748 34.526 44.9186 34.5407 44.6632V41.5558H35.4466V44.6003C35.4235 44.8844 35.4816 45.1695 35.6118 45.4114C35.6819 45.5 35.7691 45.5681 35.8661 45.6101C35.9631 45.6521 36.0673 45.6669 36.1702 45.6532C36.291 45.6574 36.4115 45.6372 36.5263 45.5936C36.6114 45.5597 36.6871 45.5001 36.7457 45.4207C36.8755 45.1811 36.9336 44.8983 36.9109 44.6163V41.5558H37.8168V44.6168C37.8319 44.8767 37.8025 45.1374 37.7301 45.3839C37.6577 45.6304 37.5438 45.8576 37.3952 46.0524C37.2326 46.2271 37.0412 46.3614 36.8326 46.4472C36.6239 46.533 36.4024 46.5685 36.1816 46.5515ZM39.9848 46.4853H38.4435V41.5558H40.0242C40.2064 41.5554 40.3883 41.5754 40.5673 41.6154C40.7336 41.6506 40.8928 41.7214 41.0369 41.8241C41.1732 41.9234 41.2856 42.0613 41.3636 42.225C41.4506 42.4189 41.4928 42.6358 41.4861 42.8544C41.4883 43.0675 41.4411 43.2773 41.3493 43.4617C41.2556 43.6457 41.1172 43.7932 40.9515 43.8858C41.1538 43.9739 41.3256 44.1369 41.4405 44.3496C41.5368 44.5758 41.5837 44.8261 41.5768 45.0784C41.5908 45.2825 41.5601 45.4874 41.4875 45.674C41.4149 45.8605 41.3029 46.0226 41.1618 46.1452C40.8095 46.3985 40.398 46.5174 39.9848 46.4853ZM40.0503 42.4546H39.3495V43.4485H40.0726C40.1368 43.4491 40.2007 43.4392 40.2625 43.4192C40.3198 43.402 40.3739 43.3726 40.422 43.3325C40.4677 43.2939 40.5057 43.2444 40.5336 43.1873C40.5634 43.123 40.5782 43.0506 40.5764 42.9775C40.5808 42.9058 40.5714 42.8338 40.5487 42.7669C40.526 42.7 40.4907 42.6399 40.4453 42.591C40.3323 42.4912 40.1917 42.4435 40.0503 42.4569V42.4546ZM40.0702 44.3496H39.3495V45.582H40.0816C40.238 45.595 40.3935 45.5453 40.5222 45.4412C40.577 45.3779 40.6188 45.3012 40.6446 45.2166C40.6704 45.132 40.6796 45.0418 40.6713 44.9525C40.6778 44.8686 40.6685 44.784 40.6438 44.7047C40.6192 44.6255 40.58 44.5534 40.5289 44.4937C40.3942 44.3875 40.2325 44.3374 40.0702 44.3518V44.3496Z" fill="#FF5900"/>
<path d="M44.5074 27.6667C44.4983 27.657 44.4892 27.6426 44.4801 27.6329C44.4708 27.6189 44.4601 27.6059 44.4483 27.5943L37.9528 20.6957C37.9437 20.686 37.9301 20.6764 37.921 20.6667C37.9119 20.657 37.8937 20.6426 37.8846 20.6329L37.8164 20.5557H26.3983C25.916 20.5557 25.4536 20.7591 25.1126 21.1213C24.7716 21.4834 24.5801 21.9746 24.5801 22.4867V46.6246C24.5801 47.1368 24.7716 47.6279 25.1126 47.9901C25.4536 48.3522 25.916 48.5557 26.3983 48.5557H42.7619C43.2441 48.5557 43.7066 48.3522 44.0475 47.9901C44.3885 47.6279 44.5801 47.1368 44.5801 46.6246V27.7391L44.5074 27.6667ZM43.671 46.6246C43.6703 46.8805 43.5743 47.1256 43.4039 47.3065C43.2336 47.4874 43.0028 47.5894 42.7619 47.5901H26.3983C26.1574 47.5894 25.9266 47.4874 25.7562 47.3065C25.5859 47.1256 25.4899 46.8805 25.4892 46.6246V39.1226H31.7301L32.9574 40.6143C32.9996 40.6662 33.0519 40.7078 33.1108 40.7362C33.1697 40.7645 33.2336 40.7789 33.2983 40.7784H43.671V46.6246ZM27.3074 32.7936V31.8281H41.8528V32.7936H27.3074ZM41.8528 33.9522V34.9177H33.8028V33.9522H41.8528ZM41.8528 30.6743H27.3074V29.7088H41.8528V30.6743ZM27.3074 28.5501V27.5846H35.3574V28.5501H27.3074ZM38.9937 27.4543C38.7528 27.4535 38.522 27.3516 38.3517 27.1706C38.1814 26.9897 38.0853 26.7446 38.0846 26.4888V22.2019L43.0301 27.4543H38.9937Z" fill="#FF5900"/>
</svg>
