<svg width="270" height="280" viewBox="0 0 270 280" fill="none" xmlns="http://www.w3.org/2000/svg">
<path d="M37.117 62.7085C36.3908 64.2078 35.6979 65.728 35.0371 67.2662L190.891 208.564C192.354 207.756 193.797 206.916 195.22 206.045L37.117 62.7085Z" fill="#FFDADC"/>
<path d="M34.4461 68.6792C33.7965 70.2509 33.1807 71.8408 32.6016 73.4504L184.99 211.606C186.53 210.872 188.05 210.101 189.552 209.298L34.4461 68.6792Z" fill="#FFDADC"/>
<path d="M32.0796 74.9241C31.512 76.5735 30.9841 78.2428 30.4922 79.9289L178.753 214.342C180.376 213.687 181.982 212.994 183.568 212.264L32.0796 74.9241Z" fill="#FFDADC"/>
<path d="M30.0555 81.479C29.5773 83.2123 29.1389 84.9632 28.7422 86.732L172.171 216.765C173.886 216.196 175.583 215.587 177.262 214.937L30.0555 81.479Z" fill="#FFDADC"/>
<path d="M40.09 57.0129C39.2906 58.4441 38.5227 59.896 37.7852 61.3673L196.498 205.256C197.887 204.38 199.253 203.47 200.601 202.533L40.09 57.0129Z" fill="#FFDADC"/>
<path d="M28.3854 88.3573C28.0051 90.1828 27.6686 92.026 27.377 93.8868L165.189 218.827C167.005 218.355 168.803 217.836 170.584 217.275L28.3854 88.3573Z" fill="#FFDADC"/>
<path d="M46.8535 46.3628C45.9171 47.6653 45.012 48.9929 44.1309 50.3383L206.85 197.86C208.102 196.853 209.331 195.82 210.539 194.76L46.8535 46.3628Z" fill="#FFDADC"/>
<path d="M43.3386 51.5681C42.4697 52.9336 41.6269 54.318 40.8164 55.7248L201.808 201.681C203.128 200.738 204.428 199.769 205.705 198.77L43.3386 51.5681Z" fill="#FFDADC"/>
<path d="M50.6403 41.4059C49.638 42.6465 48.6627 43.9105 47.7129 45.1957L211.627 193.801C212.813 192.733 213.975 191.638 215.115 190.519L50.6403 41.4059Z" fill="#FFDADC"/>
<path d="M117.877 1.67017C115.927 2.01316 113.993 2.40974 112.076 2.85425L247.457 125.591C247.593 124.549 247.718 123.502 247.825 122.45C247.918 121.532 247.999 120.617 248.069 119.702L117.877 1.67017Z" fill="#FFDADC"/>
<path d="M26.3633 120.087C26.554 122.498 26.8246 124.89 27.1695 127.261L131.949 222.255C134.372 222.371 136.782 222.404 139.178 222.365L26.3633 120.087Z" fill="#FFDADC"/>
<path d="M231.664 52.5351C220.774 35.0268 205.11 20.6525 186.281 11.3909L231.664 52.5351Z" fill="#FFDADC"/>
<path d="M27.5234 129.531C27.9679 132.198 28.5081 134.836 29.1408 137.441L121.608 221.272C123.047 221.475 124.492 221.66 125.95 221.808C127.185 221.934 128.417 222.031 129.646 222.116L27.5234 129.531Z" fill="#FFDADC"/>
<path d="M95.3 214.201C99.0167 215.712 102.838 217.034 106.757 218.144L33.7422 151.949C35.2368 155.735 36.9363 159.422 38.825 163.001L95.3 214.201Z" fill="#FFDADC"/>
<path d="M26.0137 111.38C26.0148 113.604 26.0897 115.815 26.2221 118.012L141.265 222.31C143.491 222.232 145.703 222.09 147.898 221.88L26.0137 111.38Z" fill="#FFDADC"/>
<path d="M26.3072 103.256C26.1578 105.331 26.0694 107.397 26.0352 109.453L149.82 221.677C151.885 221.443 153.935 221.154 155.968 220.807L26.3072 103.256Z" fill="#FFDADC"/>
<path d="M29.7891 139.975C30.6068 143.026 31.5447 146.031 32.6121 148.979L109.8 218.958C112.822 219.722 115.9 220.362 119.025 220.877L29.7891 139.975Z" fill="#FFDADC"/>
<path d="M27.1273 95.6066C26.9254 97.0404 26.7414 98.4808 26.5936 99.9336C26.5422 100.438 26.5036 100.941 26.459 101.444L157.763 220.485C159.694 220.122 161.608 219.71 163.506 219.248L27.1273 95.6066Z" fill="#FFDADC"/>
<path d="M54.6816 36.6788C53.6145 37.8584 52.5694 39.0595 51.5527 40.2857L216.137 189.499C217.259 188.37 218.358 187.218 219.431 186.042L54.6816 36.6788Z" fill="#FFDADC"/>
<path d="M134.576 0.0269165C132.324 0.0773566 130.086 0.19999 127.863 0.385042L248.387 109.652C248.359 107.406 248.268 105.172 248.106 102.954L134.576 0.0269165Z" fill="#FFDADC"/>
<path d="M110.38 3.2644C108.547 3.7201 106.729 4.22024 104.93 4.76657L246.257 132.895C246.621 131.054 246.941 129.195 247.214 127.319L110.38 3.2644Z" fill="#FFDADC"/>
<path d="M144.047 0.221928C141.583 0.0682438 139.132 -0.00773263 136.695 0.000621504L247.928 100.844C247.702 98.3983 247.396 95.9726 247.012 93.57L144.047 0.221928Z" fill="#FFDADC"/>
<path d="M125.906 0.558472C123.82 0.769374 121.75 1.04506 119.695 1.37103L248.189 117.863C248.316 115.769 248.387 113.684 248.397 111.609L125.906 0.558472Z" fill="#FFDADC"/>
<path d="M154.568 1.36929C152.554 1.05262 150.521 0.784499 148.468 0.57533C147.771 0.504399 147.076 0.447497 146.381 0.389648L246.622 91.269C246.129 88.5518 245.535 85.8659 244.846 83.2148L154.568 1.36929Z" fill="#FFDADC"/>
<path d="M166.698 3.977C163.59 3.12614 160.426 2.39996 157.205 1.8147L244.136 80.6265C243.238 77.4887 242.204 74.4032 241.041 71.3772L166.698 3.977Z" fill="#FFDADC"/>
<path d="M40.9902 166.913C52.4814 186.718 69.9575 202.802 91.2249 212.456L40.9902 166.913Z" fill="#FFDADC"/>
<path d="M181.88 9.34857C177.99 7.64338 173.977 6.15051 169.854 4.88904L239.822 68.323C238.157 64.3461 236.262 60.4819 234.158 56.7444L181.88 9.34857Z" fill="#FFDADC"/>
<path d="M78.7975 16.5856C77.3969 17.4519 76.0159 18.3484 74.6562 19.2747L234.824 164.483C235.612 163.042 236.368 161.579 237.093 160.097L78.7975 16.5856Z" fill="#FFDADC"/>
<path d="M58.9747 32.18C57.8431 33.299 56.738 34.4459 55.6543 35.6134L220.395 184.968C221.452 183.778 222.482 182.565 223.489 181.329L58.9747 32.18Z" fill="#FFDADC"/>
<path d="M103.336 5.26843C101.606 5.82264 99.8937 6.41831 98.1992 7.05464L244.655 139.832C245.119 138.085 245.541 136.319 245.921 134.536L103.336 5.26843Z" fill="#FFDADC"/>
<path d="M73.4328 20.1131C72.1026 21.0453 70.7955 22.0093 69.5078 22.9984L231.615 169.965C232.473 168.589 233.301 167.192 234.1 165.775L73.4328 20.1131Z" fill="#FFDADC"/>
<path d="M63.5362 27.9232C62.3395 28.9816 61.1663 30.0659 60.0156 31.1751L224.4 180.207C225.392 178.956 226.355 177.681 227.294 176.386L63.5362 27.9232Z" fill="#FFDADC"/>
<path d="M68.3534 23.8991C67.0909 24.8953 65.8478 25.9159 64.6289 26.9659L228.138 175.203C229.064 173.891 229.964 172.559 230.834 171.204L68.3534 23.8991Z" fill="#FFDADC"/>
<path d="M84.4412 13.3132C82.9663 14.11 81.5096 14.937 80.0742 15.798L237.74 158.738C238.454 157.228 239.138 155.698 239.786 154.149L84.4412 13.3132Z" fill="#FFDADC"/>
<path d="M96.6829 7.62933C95.0453 8.27181 93.4251 8.95087 91.8242 9.66853L242.68 146.435C243.233 144.773 243.751 143.093 244.228 141.394L96.6829 7.62933Z" fill="#FFDADC"/>
<path d="M90.4048 10.3253C88.8518 11.0477 87.3175 11.8055 85.8027 12.597L240.373 152.731C241.01 151.147 241.61 149.543 242.175 147.922L90.4048 10.3253Z" fill="#FFDADC"/>
<path d="M57.8606 114.37L48.0248 129.9L45.9544 133.175L43.8173 136.55C43.7951 136.578 43.7728 136.605 43.7563 136.639L39.9042 166.407H37.1067L36.2185 135.173C36.1909 134.807 36.2131 134.441 36.2852 134.085C36.3127 133.614 36.4182 133.136 36.6237 132.676L47.1254 108.753C47.8027 107.204 49.096 106.011 50.6945 105.456C52.2876 104.901 54.047 105.034 55.5347 105.827C57.0167 106.615 58.1046 107.981 58.5431 109.596C58.9818 111.212 58.7373 112.938 57.8606 114.37Z" fill="white"/>
<path d="M48.0255 129.9L45.9551 133.175L47.6368 120.82L48.0255 129.9Z" fill="#D6ADEB"/>
<path d="M148.835 235.269C148.781 235.269 148.726 235.261 148.672 235.245C148.379 235.154 148.214 234.844 148.304 234.551L160.595 194.487C160.684 194.194 160.996 194.031 161.288 194.119C161.581 194.21 161.746 194.52 161.656 194.813L149.365 234.877C149.292 235.116 149.072 235.269 148.835 235.269Z" fill="white"/>
<path d="M161.729 193.229C161.675 193.229 161.621 193.221 161.566 193.205C161.273 193.114 161.108 192.804 161.198 192.511L161.85 190.387C161.94 190.094 162.25 189.929 162.544 190.019C162.837 190.109 163.002 190.42 162.912 190.712L162.26 192.837C162.186 193.076 161.967 193.229 161.729 193.229Z" fill="white"/>
<path d="M129.64 23.117C127.032 23.117 124.918 25.2311 124.918 27.8388V29.9866V135.183H195.046V29.9868H195.061V27.839C195.061 25.2312 197.175 23.1172 199.783 23.1172H129.64V23.117Z" fill="#ED1C24"/>
<path d="M129.482 23.117H199.625C202.233 23.117 204.347 25.2311 204.347 27.8388V29.9866H134.204V27.8388C134.204 25.2311 132.09 23.117 129.482 23.117Z" fill="#AA080E"/>
<path opacity="0.5" d="M187.001 46.357C187.027 46.3565 187.053 46.353 187.08 46.353H186.921H116.937H116.779C116.805 46.353 116.831 46.3566 116.858 46.357C114.287 46.3995 112.215 48.4937 112.215 51.0748V53.2226V158.419H182.343V53.2226H182.358H191.643V51.0748C191.643 48.4937 189.572 46.3995 187.001 46.357Z" fill="#8C92E5"/>
<path d="M104.423 188.048L98.8034 101.565C98.7642 100.962 98.9765 100.37 99.3897 99.9292C99.8028 99.4883 100.38 99.2382 100.984 99.2382H205.66C206.811 99.2382 207.766 100.132 207.84 101.282L213.327 185.721C213.367 186.324 213.154 186.916 212.741 187.357C212.328 187.798 211.751 188.048 211.147 188.048H104.423Z" fill="#F6A729"/>
<path d="M135 279.648C209.558 279.648 270 278.781 270 277.712C270 276.643 209.558 275.777 135 275.777C60.4415 275.777 0 276.643 0 277.712C0 278.781 60.4415 279.648 135 279.648Z" fill="#FFDADC"/>
<path d="M89.2967 28.5939C89.485 28.8834 89.8071 29.0579 90.1526 29.0579C90.4979 29.0579 90.82 28.8833 91.0085 28.5939L94.0346 23.9445C94.2389 23.6305 94.2549 23.23 94.0764 22.9007C93.8978 22.5715 93.5534 22.3664 93.1787 22.3664H87.1267C86.752 22.3664 86.4076 22.5715 86.229 22.9007C86.0504 23.23 86.0665 23.6307 86.2708 23.9445L89.2967 28.5939Z" fill="#483193"/>
<path d="M114.718 44.3794C112.11 44.3794 109.996 46.4935 109.996 49.1012V51.2492V156.446H180.124V51.2492H180.139V49.1012C180.139 46.4935 182.253 44.3794 184.861 44.3794H114.718Z" fill="#107B43"/>
<path d="M114.559 44.3794H184.702C187.309 44.3794 189.423 46.4935 189.423 49.1012V51.249H119.28V49.1012C119.28 46.4935 117.166 44.3794 114.559 44.3794Z" fill="#063E21"/>
<path d="M172.491 70.1049H118.219V72.4074H172.491V70.1049Z" fill="white"/>
<path d="M172.491 76.9525H118.219V79.2549H172.491V76.9525Z" fill="white"/>
<path d="M172.491 83.8H118.219V86.1024H172.491V83.8Z" fill="white"/>
<path d="M172.491 90.6476H118.219V92.95H172.491V90.6476Z" fill="white"/>
<path d="M172.491 97.4951H118.219V99.7975H172.491V97.4951Z" fill="white"/>
<path d="M172.491 104.343H118.219V106.645H172.491V104.343Z" fill="white"/>
<path d="M172.491 111.19H118.219V113.493H172.491V111.19Z" fill="white"/>
<path d="M137.247 62.5525C134.639 62.5525 132.525 64.6666 132.525 67.2743V69.4221V174.619H202.653V69.4223H202.668V67.2745C202.668 64.6667 204.782 62.5526 207.39 62.5526L137.247 62.5525Z" fill="#5286EB"/>
<path d="M139.962 60.8257C137.354 60.8257 135.24 62.9398 135.24 65.5475V67.6953V172.892H205.368V67.6953H205.383V65.5475C205.383 62.9398 207.497 60.8257 210.105 60.8257H139.962Z" fill="#5286EB"/>
<path d="M139.803 60.8257H209.946C212.553 60.8257 214.667 62.9398 214.667 65.5475V67.6953H144.525V65.5475C144.525 62.9396 142.41 60.8257 139.803 60.8257Z" fill="#10347B"/>
<path d="M197.733 79.1503H143.461V81.4527H197.733V79.1503Z" fill="#F7E5FF"/>
<path d="M197.733 85.9978H143.461V88.3002H197.733V85.9978Z" fill="#F7E5FF"/>
<path d="M197.733 92.8455H143.461V95.148H197.733V92.8455Z" fill="#F7E5FF"/>
<path d="M197.733 99.6931H143.461V101.996H197.733V99.6931Z" fill="#F7E5FF"/>
<path d="M104.426 188.048L126.932 114.891C127.214 113.974 128.062 113.348 129.021 113.348H194.677C195.216 113.348 195.736 113.149 196.137 112.79L207.844 102.287C208.245 101.927 208.765 101.728 209.304 101.728H237.676C238.37 101.728 239.023 102.058 239.435 102.617C239.847 103.176 239.969 103.897 239.763 104.561L214.376 186.51C214.092 187.425 213.246 188.048 212.288 188.048L104.426 188.048Z" fill="#F2CA50"/>
<path d="M178.596 146.188H167.873L166.902 149.553H177.626L178.596 146.188Z" fill="#ED1C24"/>
<path d="M180.449 139.755H169.726L168.756 143.119H179.479L180.449 139.755Z" fill="#ED1C24"/>
<path d="M175.032 158.538L177.005 151.698H166.281L164.309 158.538H160.402L166.871 168.248L178.939 158.538H175.032Z" fill="#ED1C24"/>
<path d="M207.026 235.04H203.696C203.389 235.04 203.141 234.791 203.141 234.485C203.141 234.178 203.389 233.929 203.696 233.929H207.026C207.332 233.929 207.581 234.178 207.581 234.485C207.581 234.791 207.332 235.04 207.026 235.04Z" fill="white"/>
<path d="M200.982 235.04H196.582C196.276 235.04 196.027 234.791 196.027 234.485C196.027 234.178 196.276 233.929 196.582 233.929H200.982C201.288 233.929 201.537 234.178 201.537 234.485C201.537 234.791 201.288 235.04 200.982 235.04Z" fill="white"/>
<path d="M193.788 235.04H91.5745C91.2681 235.04 91.0195 234.791 91.0195 234.485C91.0195 234.178 91.2681 233.929 91.5745 233.929H193.788C194.094 233.929 194.343 234.178 194.343 234.485C194.343 234.791 194.094 235.04 193.788 235.04Z" fill="white"/>
<path d="M149.383 236.705C150.745 236.705 151.85 235.6 151.85 234.238C151.85 232.875 150.745 231.771 149.383 231.771C148.021 231.771 146.916 232.875 146.916 234.238C146.916 235.6 148.021 236.705 149.383 236.705Z" fill="white"/>
<path d="M43.5282 177.567L35.3301 177.564L35.3318 173.647C35.3321 172.729 36.0794 171.982 36.9974 171.982L42.3773 171.984L42.3767 173.251L36.997 173.249C36.7772 173.249 36.5983 173.427 36.598 173.648L36.5969 176.298L43.5286 176.301L43.5282 177.567Z" fill="#2A1968"/>
<path d="M24.2471 204.628L57.9512 204.642C59.9018 204.642 61.4837 203.062 61.4845 201.111L61.4937 179.113C61.4944 177.162 59.9138 175.58 57.9633 175.579L24.2593 175.565C22.3087 175.565 20.7267 177.145 20.7259 179.096L20.7168 201.094C20.716 203.045 22.2967 204.627 24.2471 204.628Z" fill="#2A1968"/>
<path d="M39.9766 186.662C39.9762 187.287 40.4821 187.793 41.1063 187.793C41.7305 187.793 42.2368 187.287 42.2369 186.663L42.2377 184.842C42.238 184.218 41.7322 183.712 41.108 183.712C40.4838 183.711 39.9775 184.217 39.9773 184.841L39.9766 186.662Z" fill="white"/>
<path d="M68.7023 155.63L68.6627 155.931L64.4258 186.762L62.1763 203.156L61.0885 211.062C60.9451 212.065 60.7276 213.059 60.4309 214.028L41.624 274.31L36.8828 273C40.6352 247.321 45.065 220.48 48.4319 210.369L48.6445 171.812C45.7967 164.648 48.8472 155.63 48.8472 155.63H68.7023V155.63Z" fill="#403193"/>
<path d="M64.4277 186.762L62.1782 203.156L60.2285 173.528L64.4277 186.762Z" fill="#403193"/>
<path d="M71.4546 86.8009L71.2421 86.8854C71.4546 87.7189 71.6235 88.5986 71.6916 89.5491C71.7052 89.6853 71.7052 89.8243 71.7187 89.9741L71.6506 90.99L71.5009 92.9811L68.0744 95.7729L67.3418 96.3694L67.3691 96.4812L66.9632 100.096L66.8462 101.144H57.7598L58.5714 94.6699V94.6562L59.2306 88.7947L59.8188 83.4563L65.2553 77.9789C65.2553 77.9789 66.0915 78.5429 67.162 79.6405C68.0581 80.5638 69.1149 81.8657 69.9893 83.5436L71.7079 85.9378C71.8114 86.0795 71.8414 86.2618 71.7923 86.4308C71.7433 86.5993 71.6179 86.7355 71.4546 86.8009Z" fill="#F38A98"/>
<path d="M68.0738 95.7728L67.3412 96.3692L67.3684 96.481L66.9626 100.095H65.1484L65.6333 97.2708C64.827 94.4464 67.3273 93.2344 67.3273 93.2344L68.2972 94.1223L68.0738 95.7728Z" fill="#DF5368"/>
<path d="M71.5503 93.8756C72.0888 92.6499 71.9789 91.3066 71.8552 90.5651C71.7868 90.1946 71.7182 89.9748 71.7182 89.9748C71.7045 89.8238 71.7045 89.6865 71.6908 89.5494C71.1758 89.774 70.5887 89.7652 70.0805 89.5251C69.5721 89.2851 69.1929 88.8371 69.0394 88.2963C68.6092 86.7817 68.1086 85.0204 68.1086 85.0204C67.7163 83.6372 67.1134 82.6877 66.5059 82.0345C67.8646 81.3953 68.8111 80.0246 68.8111 78.4238C68.8111 76.2146 67.0202 74.424 64.8114 74.424C64.0069 74.424 63.261 74.6664 62.6338 75.075C61.7314 75.0539 60.8134 75.1631 59.9974 75.3581C59.2973 75.5228 58.6798 76.0168 58.0348 76.1815C52.1468 77.609 53.3684 82.6183 53.3684 82.6183C50.596 84.4573 51.4055 88.2041 53.1348 89.604C54.576 90.7568 57.1702 93.5154 58.0346 94.435C58.1721 94.586 58.3778 94.6546 58.5697 94.6546C58.6248 94.6546 58.6796 94.6409 58.7346 94.6272L63.3871 93.3097C66.2969 91.9373 65.8027 88.7668 65.8027 88.7668C65.405 87.3944 65.8577 86.6806 66.3244 86.2963C66.489 86.1729 66.7084 86.1316 66.9007 86.2003C67.1064 86.2689 67.2576 86.4199 67.3126 86.6258L68.0537 89.2335C68.3144 90.1805 68.1909 91.1961 67.7106 92.047C66.6676 93.845 66.9144 95.2175 66.9144 95.2175L67.1198 95.944C67.1389 96.0461 67.1721 96.1419 67.2032 96.2393L67.2711 96.4802H67.2828C67.6724 97.376 68.5635 98.0036 69.6026 98.0036C71.0002 98.0036 72.1331 96.8708 72.1331 95.4731C72.1334 94.8637 71.9093 94.3124 71.5503 93.8756Z" fill="#2A1968"/>
<path d="M76.8973 110.135V155.63H48.8501L47.2778 110.476C47.1739 107.579 48.9538 104.954 51.673 103.965L55.8061 102.462H68.6208L72.7935 103.52C75.4187 104.183 76.625 106.343 76.8575 108.939C76.8922 109.329 76.9072 109.73 76.8973 110.135Z" fill="white"/>
<path d="M55.8047 102.464V100.449C55.8047 99.6595 56.4445 99.0197 57.2337 99.0197H67.2426C68.0318 99.0197 68.6716 99.6595 68.6716 100.449V102.464H55.8047Z" fill="white"/>
<path d="M80.5952 276.796C80.4354 276.826 80.2698 276.802 80.1255 276.728L78.4072 275.777L78.407 275.777L77.0357 274.906L73.7598 274.906V277.712H75.6144V276.798L76.6358 277.712H81.5562C81.7033 277.713 81.8354 277.622 81.8868 277.485C82.1387 276.808 80.9393 276.73 80.5952 276.796Z" fill="#483193"/>
<path d="M42.9274 276.797C42.7673 276.826 42.6041 276.803 42.4599 276.729L41.5282 276.214L41.2687 275.913L40.0136 272.847L37.6698 272.408L36.6866 274.904L36.2383 276.114L37.9769 276.758L38.294 275.9L38.9376 277.114L40.558 277.712H43.2606H43.8883C44.0355 277.712 44.167 277.623 44.2214 277.485C44.471 276.809 43.2733 276.729 42.9274 276.797Z" fill="#2A1968"/>
<path d="M71.9469 275.108H77.2423L80.5155 212.22C80.5385 211.779 80.5355 211.337 80.5067 210.896L76.8941 155.631H57.8728C57.8728 155.631 55.5051 164.226 59.9453 171.873L68.2114 211.688C67.3325 221.357 69.9693 251.02 71.9469 275.108Z" fill="#403193"/>
<path d="M67.6615 210.665C67.5752 210.665 67.4978 210.604 67.4801 210.516L59.7694 171.939C58.414 169.597 57.5557 166.932 57.2181 164.02C57.2061 163.918 57.2791 163.826 57.3808 163.814C57.4884 163.81 57.5745 163.876 57.5861 163.977C57.9195 166.85 58.7669 169.475 60.1055 171.779C60.1157 171.797 60.1228 171.816 60.1269 171.836L67.8436 210.443C67.8636 210.544 67.7985 210.641 67.6981 210.662C67.6858 210.664 67.6737 210.665 67.6615 210.665Z" fill="#EECBFF"/>
<path d="M56.6379 155.631H64.7857L55.8047 160.765L56.6379 155.631Z" fill="#403193"/>
<path d="M48.2987 141.254C48.1909 141.254 48.1007 141.169 48.0949 141.061L47.4163 128.294C47.4103 128.182 47.4967 128.085 47.6096 128.08C47.7155 128.057 47.8184 128.159 47.8244 128.272L48.503 141.039C48.509 141.151 48.4224 141.248 48.3097 141.254C48.3061 141.254 48.3025 141.254 48.2987 141.254Z" fill="#D6ADEB"/>
<path d="M48.4825 143.848C48.373 143.848 48.2825 143.761 48.2785 143.651L48.2306 142.331C48.2264 142.218 48.3145 142.124 48.4272 142.12C48.5512 142.111 48.6346 142.204 48.6386 142.317L48.6865 143.636C48.6907 143.749 48.6026 143.844 48.4899 143.848C48.4874 143.848 48.4847 143.848 48.4825 143.848Z" fill="#D6ADEB"/>
<path d="M48.8767 154.689C48.7672 154.689 48.6767 154.603 48.6728 154.492L48.3263 144.97C48.3221 144.857 48.4102 144.762 48.5229 144.758C48.649 144.754 48.7303 144.843 48.7343 144.955L49.0807 154.478C49.085 154.591 48.9969 154.685 48.8842 154.689C48.8815 154.689 48.879 154.689 48.8767 154.689Z" fill="#D6ADEB"/>
<path d="M76.897 120.369V136.452L74.4398 125.333L66.9199 113.364L76.897 120.369Z" fill="#F7E5FF"/>
<path d="M119.06 125.514L91.5752 126.104L76.1485 105.723C75.1351 104.389 73.6153 103.532 71.9487 103.357C70.2821 103.182 68.6173 103.703 67.3482 104.797C66.0685 105.901 65.3068 107.488 65.2461 109.176C65.1851 110.865 65.8311 112.503 67.0281 113.695L86.357 132.719C86.9015 133.261 87.561 133.614 88.2558 133.788L88.2553 133.79C88.9435 134.005 89.6777 134.024 90.3762 133.845L119.369 128.406L119.06 125.514Z" fill="white"/>
<path d="M91.5738 126.308C91.5098 126.308 91.4498 126.279 91.4108 126.227L75.9841 105.847C75.0093 104.563 73.53 103.729 71.9258 103.56C71.1174 103.476 70.311 103.558 69.5337 103.804C69.4261 103.84 69.3115 103.779 69.2773 103.672C69.2431 103.564 69.3023 103.449 69.41 103.415C70.2411 103.15 71.1018 103.062 71.9687 103.154C73.6845 103.334 75.2669 104.226 76.3097 105.6L91.6723 125.896L95.0991 125.758C95.2173 125.759 95.3069 125.842 95.3114 125.955C95.316 126.067 95.2284 126.162 95.1157 126.167L91.5822 126.309C91.5793 126.308 91.5765 126.308 91.5738 126.308Z" fill="#D6ADEB"/>
<path d="M67.3468 105.001C67.2894 105.001 67.2323 104.977 67.1921 104.931C67.1185 104.845 67.128 104.716 67.2136 104.642C67.6371 104.277 68.1076 103.97 68.612 103.73C68.7124 103.681 68.836 103.724 68.8842 103.826C68.9328 103.928 68.8896 104.05 68.7878 104.099C68.3161 104.323 67.8764 104.611 67.4799 104.952C67.4415 104.985 67.394 105.001 67.3468 105.001Z" fill="#D6ADEB"/>
<path d="M16.3378 105.485L13.7063 103.472C13.3707 103.215 12.9235 103.157 12.5334 103.319L9.47437 104.592C9.08424 104.754 8.81029 105.112 8.75575 105.531L8.32827 108.817C8.27373 109.236 8.44696 109.652 8.78255 109.909L11.4141 111.922C11.7497 112.178 12.1969 112.237 12.587 112.074L15.646 110.802C16.0361 110.639 16.3101 110.281 16.3646 109.862L16.7921 106.577C16.8467 106.158 16.6734 105.741 16.3378 105.485Z" fill="#F95DB7"/>
<path d="M39.8997 166.405L39.9192 167.092C39.9192 167.092 41.2679 168.227 42.2992 169.069C42.2992 169.069 42.771 169.323 42.9266 169.878L43.4836 172.143C43.4836 172.143 43.6992 172.616 43.0191 172.899L43.0364 173.528C43.0364 173.528 43.0278 174.071 42.4084 174.037L38.7616 174.078C38.5008 174.081 38.2452 174.002 38.0315 173.852C37.778 173.675 37.4774 173.374 37.2998 172.882C37.2686 172.795 37.2454 172.706 37.2306 172.615L36.8335 170.19C36.817 170.089 36.814 169.987 36.8244 169.885L37.076 167.428L37.1025 166.405L39.8997 166.405Z" fill="#F38A98"/>
<path d="M45.6021 177.568L43.5265 177.568C43.1767 177.567 42.8933 177.283 42.8936 176.934C42.8936 176.584 43.1772 176.301 43.5268 176.301H43.5271L44.3361 176.301L44.3375 173.65C44.3375 173.43 44.1583 173.251 43.9382 173.251L42.3751 173.251C42.0253 173.251 41.7419 172.966 41.7422 172.617C41.7422 172.267 42.0258 171.984 42.3754 171.984H42.3757L43.9392 171.984C44.8575 171.985 45.6039 172.733 45.6039 173.65L45.6021 177.568Z" fill="#2A1968"/>
<path d="M47.4603 213.826C47.4444 213.826 47.428 213.824 47.4117 213.82C47.3131 213.793 47.2546 213.691 47.2814 213.592C47.6155 212.359 47.941 211.266 48.249 210.339L48.4614 171.846C47.531 169.489 47.1316 166.693 47.2743 163.534C47.2788 163.433 47.351 163.36 47.4677 163.358C47.5701 163.363 47.6491 163.449 47.6445 163.552C47.5036 166.672 47.8988 169.428 48.819 171.743C48.8278 171.765 48.8321 171.789 48.8321 171.813L48.6194 210.371C48.6191 210.39 48.616 210.41 48.6097 210.428C48.3012 211.354 47.9748 212.451 47.6389 213.689C47.6169 213.772 47.5421 213.826 47.4603 213.826Z" fill="white"/>
<path d="M46.7071 216.768C46.6926 216.768 46.6777 216.767 46.6632 216.763C46.5635 216.739 46.5025 216.639 46.5268 216.539C46.6709 215.945 46.8138 215.373 46.9557 214.824C46.9817 214.725 47.0824 214.664 47.1814 214.69C47.2807 214.716 47.3403 214.817 47.3146 214.916C47.1734 215.464 47.0311 216.034 46.8868 216.627C46.8663 216.711 46.7905 216.768 46.7071 216.768Z" fill="white"/>
<path d="M51.2768 210.555H48.4336C48.3311 210.555 48.248 210.472 48.248 210.37C48.248 210.267 48.3311 210.184 48.4336 210.184H51.2768C51.3793 210.184 51.4623 210.267 51.4623 210.37C51.4623 210.472 51.3793 210.555 51.2768 210.555Z" fill="white"/>
<path d="M124.105 123.898L130.699 123.74C130.835 123.736 130.97 123.765 131.092 123.824C131.285 123.917 131.554 124.093 131.719 124.4C131.889 124.716 131.893 125.095 131.731 125.415C131.325 126.216 131.124 126.523 130.436 127.053C129.701 127.62 129.02 127.971 128.1 128.09L126.097 128.35C126.097 128.35 122.066 128.896 120.11 128.324L119.37 128.407L119.061 125.514L119.736 125.496C119.917 125.191 120.67 124.015 121.94 123.39L124.074 122.323L124.762 121.943L124.105 123.898Z" fill="#F38A98"/>
<path d="M90.8352 128.487C90.8134 128.487 90.7912 128.484 90.7696 128.476C90.6626 128.44 90.6055 128.324 90.6418 128.217L91.382 126.038C91.4185 125.932 91.5344 125.875 91.6411 125.911C91.7481 125.947 91.8052 126.063 91.7689 126.17L91.0287 128.349C90.9999 128.434 90.9203 128.487 90.8352 128.487Z" fill="#D6ADEB"/>
<path d="M190.531 34.3699H160.943V38H190.531V34.3699Z" fill="#EECBFF"/>
<path d="M238.357 235.662C237.993 236.025 237.404 236.025 237.041 235.662L233.561 232.182C233.198 231.819 233.198 231.23 233.561 230.866L237.041 227.387C237.404 227.024 237.993 227.024 238.357 227.387L241.836 230.866C242.199 231.23 242.199 231.818 241.836 232.182L238.357 235.662Z" fill="#5A50EE"/>
</svg>
